<svg width="186" height="239" viewBox="0 0 186 239" fill="none" xmlns="http://www.w3.org/2000/svg">
<path d="M42.9985 68.0037V156.411C42.9985 158.505 40.9069 159.955 38.9458 159.22L7.24365 147.34C5.29186 146.608 3.9987 144.742 3.99854 142.658V34.739L42.9985 68.0037ZM182.999 142.658C182.998 144.742 181.705 146.608 179.753 147.34L148.051 159.22C146.09 159.955 143.999 158.505 143.999 156.411V68.0037L182.999 34.739V142.658ZM144.234 1.23412C145.131 0.482098 146.383 0.320333 147.442 0.820062L181.08 16.7039C182.251 17.257 182.998 18.4361 182.998 19.7312C182.997 20.7213 182.559 21.6606 181.8 22.2966L124.001 70.7497L92.9995 96.739L4.04443 22.1667C3.3836 21.6128 3.00146 20.7947 3.00146 19.9324C3.00155 18.8044 3.65241 17.7773 4.67236 17.2956L38.9185 1.12475C39.977 0.625003 41.2294 0.786805 42.1265 1.53881L92.9995 44.1853L144.234 1.23412Z" fill="url(#paint0_radial_37_47)"/>
<path d="M42.9985 68.0037V156.411C42.9985 158.505 40.9069 159.955 38.9458 159.22L7.24365 147.34C5.29186 146.608 3.9987 144.742 3.99854 142.658V34.739L42.9985 68.0037ZM182.999 142.658C182.998 144.742 181.705 146.608 179.753 147.34L148.051 159.22C146.09 159.955 143.999 158.505 143.999 156.411V68.0037L182.999 34.739V142.658ZM144.234 1.23412C145.131 0.482098 146.383 0.320333 147.442 0.820062L181.08 16.7039C182.251 17.257 182.998 18.4361 182.998 19.7312C182.997 20.7213 182.559 21.6606 181.8 22.2966L124.001 70.7497L92.9995 96.739L4.04443 22.1667C3.3836 21.6128 3.00146 20.7947 3.00146 19.9324C3.00155 18.8044 3.65241 17.7773 4.67236 17.2956L38.9185 1.12475C39.977 0.625003 41.2294 0.786805 42.1265 1.53881L92.9995 44.1853L144.234 1.23412Z" fill="url(#paint1_linear_37_47)"/>
<path d="M124.243 115.739L93.4985 140.739L62.7544 115.739V84.7393L93.4985 109.739L124.243 84.7393V115.739Z" fill="url(#paint2_linear_37_47)"/>
<path d="M3.744 226.739V187.999H10.504L25.012 207.707H21.788L35.984 187.999H42.744V226.739H35.62V196.059L38.376 196.735L23.66 216.339H22.828L8.476 196.735L10.816 196.059V226.739H3.744ZM53.0181 238.179C52.2554 238.179 51.5101 238.11 50.7821 237.971C50.0541 237.867 49.3954 237.659 48.8061 237.347V231.679C49.2567 231.783 49.7941 231.887 50.4181 231.991C51.0767 232.095 51.6834 232.147 52.2381 232.147C53.7981 232.147 54.9247 231.783 55.6181 231.055C56.3461 230.362 56.9874 229.426 57.5421 228.247L59.4141 223.879L59.3101 229.599L46.9861 198.451H54.3181L62.9501 221.435H60.3501L68.9301 198.451H76.3141L63.9901 229.599C63.2621 231.402 62.3781 232.945 61.3381 234.227C60.2981 235.51 59.0847 236.481 57.6981 237.139C56.3461 237.833 54.7861 238.179 53.0181 238.179ZM92.703 227.363C89.9643 227.363 87.5203 226.722 85.371 225.439C83.2217 224.122 81.523 222.337 80.275 220.083C79.027 217.83 78.403 215.334 78.403 212.595C78.403 209.822 79.027 207.326 80.275 205.107C81.523 202.889 83.2217 201.121 85.371 199.803C87.555 198.486 89.9817 197.827 92.651 197.827C94.8003 197.827 96.707 198.261 98.371 199.127C100.07 199.959 101.404 201.138 102.375 202.663L101.335 204.067V187.375H108.147V226.739H101.699V221.279L102.427 222.631C101.456 224.157 100.104 225.335 98.371 226.167C96.6377 226.965 94.7483 227.363 92.703 227.363ZM93.431 221.123C94.991 221.123 96.3603 220.759 97.539 220.031C98.7177 219.303 99.6363 218.298 100.295 217.015C100.988 215.733 101.335 214.259 101.335 212.595C101.335 210.966 100.988 209.51 100.295 208.227C99.6363 206.91 98.7177 205.887 97.539 205.159C96.3603 204.431 94.991 204.067 93.431 204.067C91.9057 204.067 90.5363 204.449 89.323 205.211C88.1097 205.939 87.1563 206.945 86.463 208.227C85.8043 209.475 85.475 210.931 85.475 212.595C85.475 214.259 85.8043 215.733 86.463 217.015C87.1563 218.298 88.1097 219.303 89.323 220.031C90.5363 220.759 91.9057 221.123 93.431 221.123ZM128.317 227.363C125.543 227.363 123.013 226.722 120.725 225.439C118.471 224.157 116.669 222.406 115.317 220.187C113.999 217.969 113.341 215.438 113.341 212.595C113.341 209.753 113.999 207.222 115.317 205.003C116.669 202.785 118.471 201.034 120.725 199.751C122.978 198.469 125.509 197.827 128.317 197.827C131.09 197.827 133.603 198.469 135.857 199.751C138.11 201.034 139.895 202.785 141.213 205.003C142.565 207.187 143.241 209.718 143.241 212.595C143.241 215.438 142.565 217.969 141.213 220.187C139.861 222.406 138.058 224.157 135.805 225.439C133.551 226.722 131.055 227.363 128.317 227.363ZM128.317 221.123C129.842 221.123 131.177 220.759 132.321 220.031C133.499 219.303 134.418 218.298 135.077 217.015C135.77 215.698 136.117 214.225 136.117 212.595C136.117 210.931 135.77 209.475 135.077 208.227C134.418 206.945 133.499 205.939 132.321 205.211C131.177 204.449 129.842 204.067 128.317 204.067C126.757 204.067 125.387 204.449 124.209 205.211C123.03 205.939 122.094 206.945 121.401 208.227C120.742 209.475 120.413 210.931 120.413 212.595C120.413 214.225 120.742 215.698 121.401 217.015C122.094 218.298 123.03 219.303 124.209 220.031C125.387 220.759 126.757 221.123 128.317 221.123ZM148.406 226.739V198.451H154.802V204.743L154.282 203.807C154.941 201.693 155.964 200.219 157.35 199.387C158.772 198.555 160.47 198.139 162.446 198.139H164.11V204.171H161.666C159.725 204.171 158.165 204.778 156.986 205.991C155.808 207.17 155.218 208.834 155.218 210.983V226.739H148.406ZM171.132 226.739V204.535H166.14V198.451H171.132V197.515C171.132 195.366 171.565 193.546 172.432 192.055C173.333 190.53 174.581 189.369 176.176 188.571C177.77 187.774 179.66 187.375 181.844 187.375C182.26 187.375 182.71 187.41 183.196 187.479C183.716 187.514 184.149 187.566 184.496 187.635V193.511C184.149 193.442 183.82 193.407 183.508 193.407C183.23 193.373 182.97 193.355 182.728 193.355C181.202 193.355 180.024 193.702 179.192 194.395C178.36 195.054 177.944 196.094 177.944 197.515V198.451H184.236V204.535H177.944V226.739H171.132Z" fill="#07073B"/>
<defs>
<radialGradient id="paint0_radial_37_47" cx="0" cy="0" r="1" gradientUnits="userSpaceOnUse" gradientTransform="translate(81.5014 74.4998) rotate(-153.3) scale(189.172 82.2728)">
<stop offset="0.361373" stop-color="#323EE3"/>
<stop offset="1" stop-color="#752DF0"/>
</radialGradient>
<linearGradient id="paint1_linear_37_47" x1="22.0015" y1="-7" x2="112.001" y2="80" gradientUnits="userSpaceOnUse">
<stop stop-color="#5BABFB"/>
<stop offset="0.453917" stop-color="#3E59FA" stop-opacity="0"/>
</linearGradient>
<linearGradient id="paint2_linear_37_47" x1="93.4985" y1="84.7393" x2="93.4985" y2="140.739" gradientUnits="userSpaceOnUse">
<stop stop-color="#313EE3"/>
<stop offset="1" stop-color="#5DAFFC"/>
</linearGradient>
</defs>
</svg>
