<svg width="662" height="161" viewBox="0 0 662 161" fill="none" xmlns="http://www.w3.org/2000/svg">
<path d="M39.9971 68.0037V156.411C39.9971 158.505 37.9055 159.955 35.9443 159.22L4.24219 147.34C2.2904 146.608 0.997236 144.742 0.99707 142.658V34.739L39.9971 68.0037ZM179.997 142.658C179.997 144.742 178.704 146.608 176.752 147.34L145.05 159.22C143.089 159.955 140.997 158.505 140.997 156.411V68.0037L179.997 34.739V142.658ZM141.232 1.23412C142.129 0.482098 143.382 0.320333 144.44 0.820062L178.078 16.7039C179.249 17.257 179.996 18.4361 179.996 19.7312C179.996 20.7213 179.558 21.6606 178.799 22.2966L121 70.7497L89.998 96.739L1.04297 22.1667C0.382134 21.6128 0 20.7947 0 19.9324C8.66117e-05 18.8044 0.65095 17.7773 1.6709 17.2956L35.917 1.12475C36.9755 0.625003 38.2279 0.786805 39.125 1.53881L89.998 44.1853L141.232 1.23412Z" fill="url(#paint0_radial_37_67)"/>
<path d="M39.9971 68.0037V156.411C39.9971 158.505 37.9055 159.955 35.9443 159.22L4.24219 147.34C2.2904 146.608 0.997236 144.742 0.99707 142.658V34.739L39.9971 68.0037ZM179.997 142.658C179.997 144.742 178.704 146.608 176.752 147.34L145.05 159.22C143.089 159.955 140.997 158.505 140.997 156.411V68.0037L179.997 34.739V142.658ZM141.232 1.23412C142.129 0.482098 143.382 0.320333 144.44 0.820062L178.078 16.7039C179.249 17.257 179.996 18.4361 179.996 19.7312C179.996 20.7213 179.558 21.6606 178.799 22.2966L121 70.7497L89.998 96.739L1.04297 22.1667C0.382134 21.6128 0 20.7947 0 19.9324C8.66117e-05 18.8044 0.65095 17.7773 1.6709 17.2956L35.917 1.12475C36.9755 0.625003 38.2279 0.786805 39.125 1.53881L89.998 44.1853L141.232 1.23412Z" fill="url(#paint1_linear_37_67)"/>
<path d="M121.241 115.739L90.4971 140.739L59.7529 115.739V84.7393L90.4971 109.739L121.241 84.7393V115.739Z" fill="url(#paint2_linear_37_67)"/>
<path d="M223.997 131.37V38.2446H240.247L275.122 85.6196H267.372L301.497 38.2446H317.747V131.37H300.622V57.6196L307.247 59.2446L271.872 106.37H269.872L235.372 59.2446L240.997 57.6196V131.37H223.997ZM342.444 158.87C340.611 158.87 338.819 158.703 337.069 158.37C335.319 158.12 333.736 157.62 332.319 156.87V143.245C333.403 143.495 334.694 143.745 336.194 143.995C337.778 144.245 339.236 144.37 340.569 144.37C344.319 144.37 347.028 143.495 348.694 141.745C350.444 140.078 351.986 137.828 353.319 134.995L357.819 124.495L357.569 138.245L327.944 63.3696H345.569L366.319 118.62H360.069L380.694 63.3696H398.444L368.819 138.245C367.069 142.578 364.944 146.286 362.444 149.37C359.944 152.453 357.028 154.786 353.694 156.37C350.444 158.036 346.694 158.87 342.444 158.87ZM437.841 132.87C431.257 132.87 425.382 131.328 420.216 128.245C415.049 125.078 410.966 120.786 407.966 115.37C404.966 109.953 403.466 103.953 403.466 97.3696C403.466 90.703 404.966 84.703 407.966 79.3696C410.966 74.0363 415.049 69.7863 420.216 66.6196C425.466 63.453 431.299 61.8696 437.716 61.8696C442.882 61.8696 447.466 62.9113 451.466 64.9946C455.549 66.9946 458.757 69.828 461.091 73.4946L458.591 76.8696V36.7446H474.966V131.37H459.466V118.245L461.216 121.495C458.882 125.161 455.632 127.995 451.466 129.995C447.299 131.911 442.757 132.87 437.841 132.87ZM439.591 117.87C443.341 117.87 446.632 116.995 449.466 115.245C452.299 113.495 454.507 111.078 456.091 107.995C457.757 104.911 458.591 101.37 458.591 97.3696C458.591 93.453 457.757 89.953 456.091 86.8696C454.507 83.703 452.299 81.2446 449.466 79.4946C446.632 77.7446 443.341 76.8696 439.591 76.8696C435.924 76.8696 432.632 77.7863 429.716 79.6196C426.799 81.3696 424.507 83.7863 422.841 86.8696C421.257 89.8696 420.466 93.3696 420.466 97.3696C420.466 101.37 421.257 104.911 422.841 107.995C424.507 111.078 426.799 113.495 429.716 115.245C432.632 116.995 435.924 117.87 439.591 117.87ZM523.45 132.87C516.784 132.87 510.7 131.328 505.2 128.245C499.784 125.161 495.45 120.953 492.2 115.62C489.034 110.286 487.45 104.203 487.45 97.3696C487.45 90.5363 489.034 84.453 492.2 79.1196C495.45 73.7863 499.784 69.578 505.2 66.4946C510.617 63.4113 516.7 61.8696 523.45 61.8696C530.117 61.8696 536.159 63.4113 541.575 66.4946C546.992 69.578 551.284 73.7863 554.45 79.1196C557.7 84.3696 559.325 90.453 559.325 97.3696C559.325 104.203 557.7 110.286 554.45 115.62C551.2 120.953 546.867 125.161 541.45 128.245C536.034 131.328 530.034 132.87 523.45 132.87ZM523.45 117.87C527.117 117.87 530.325 116.995 533.075 115.245C535.909 113.495 538.117 111.078 539.7 107.995C541.367 104.828 542.2 101.286 542.2 97.3696C542.2 93.3696 541.367 89.8696 539.7 86.8696C538.117 83.7863 535.909 81.3696 533.075 79.6196C530.325 77.7863 527.117 76.8696 523.45 76.8696C519.7 76.8696 516.409 77.7863 513.575 79.6196C510.742 81.3696 508.492 83.7863 506.825 86.8696C505.242 89.8696 504.45 93.3696 504.45 97.3696C504.45 101.286 505.242 104.828 506.825 107.995C508.492 111.078 510.742 113.495 513.575 115.245C516.409 116.995 519.7 117.87 523.45 117.87ZM571.743 131.37V63.3696H587.118V78.4946L585.868 76.2446C587.451 71.1613 589.91 67.6196 593.243 65.6196C596.66 63.6196 600.743 62.6196 605.493 62.6196H609.493V77.1196H603.618C598.951 77.1196 595.201 78.578 592.368 81.4946C589.535 84.328 588.118 88.328 588.118 93.4946V131.37H571.743ZM626.371 131.37V77.9946H614.371V63.3696H626.371V61.1196C626.371 55.953 627.413 51.578 629.496 47.9946C631.663 44.328 634.663 41.5363 638.496 39.6196C642.329 37.703 646.871 36.7446 652.121 36.7446C653.121 36.7446 654.204 36.828 655.371 36.9946C656.621 37.078 657.663 37.203 658.496 37.3696V51.4946C657.663 51.328 656.871 51.2446 656.121 51.2446C655.454 51.1613 654.829 51.1196 654.246 51.1196C650.579 51.1196 647.746 51.953 645.746 53.6196C643.746 55.203 642.746 57.703 642.746 61.1196V63.3696H657.871V77.9946H642.746V131.37H626.371Z" fill="#F5F1FF"/>
<defs>
<radialGradient id="paint0_radial_37_67" cx="0" cy="0" r="1" gradientUnits="userSpaceOnUse" gradientTransform="translate(78.5 74.4998) rotate(-153.3) scale(189.172 82.2728)">
<stop offset="0.361373" stop-color="#323EE3"/>
<stop offset="1" stop-color="#752DF0"/>
</radialGradient>
<linearGradient id="paint1_linear_37_67" x1="19" y1="-7" x2="109" y2="80" gradientUnits="userSpaceOnUse">
<stop stop-color="#5BABFB"/>
<stop offset="0.453917" stop-color="#3E59FA" stop-opacity="0"/>
</linearGradient>
<linearGradient id="paint2_linear_37_67" x1="90.4971" y1="84.7393" x2="90.4971" y2="140.739" gradientUnits="userSpaceOnUse">
<stop stop-color="#313EE3"/>
<stop offset="1" stop-color="#5DAFFC"/>
</linearGradient>
</defs>
</svg>
