<svg width="180" height="161" viewBox="0 0 180 161" fill="none" xmlns="http://www.w3.org/2000/svg">
<path d="M39.9971 68.0037V156.411C39.9971 158.505 37.9055 159.955 35.9443 159.22L4.24219 147.34C2.2904 146.608 0.997236 144.742 0.99707 142.658V34.739L39.9971 68.0037ZM179.997 142.658C179.997 144.742 178.704 146.608 176.752 147.34L145.05 159.22C143.089 159.955 140.997 158.505 140.997 156.411V68.0037L179.997 34.739V142.658ZM141.232 1.23412C142.129 0.482098 143.382 0.320333 144.44 0.820062L178.078 16.7039C179.249 17.257 179.996 18.4361 179.996 19.7312C179.996 20.7213 179.558 21.6606 178.799 22.2966L121 70.7497L89.998 96.739L1.04297 22.1667C0.382134 21.6128 0 20.7947 0 19.9324C8.66117e-05 18.8044 0.65095 17.7773 1.6709 17.2956L35.917 1.12475C36.9755 0.625003 38.2279 0.786805 39.125 1.53881L89.998 44.1853L141.232 1.23412Z" fill="url(#paint0_radial_36_29)"/>
<path d="M39.9971 68.0037V156.411C39.9971 158.505 37.9055 159.955 35.9443 159.22L4.24219 147.34C2.2904 146.608 0.997236 144.742 0.99707 142.658V34.739L39.9971 68.0037ZM179.997 142.658C179.997 144.742 178.704 146.608 176.752 147.34L145.05 159.22C143.089 159.955 140.997 158.505 140.997 156.411V68.0037L179.997 34.739V142.658ZM141.232 1.23412C142.129 0.482098 143.382 0.320333 144.44 0.820062L178.078 16.7039C179.249 17.257 179.996 18.4361 179.996 19.7312C179.996 20.7213 179.558 21.6606 178.799 22.2966L121 70.7497L89.998 96.739L1.04297 22.1667C0.382134 21.6128 0 20.7947 0 19.9324C8.66117e-05 18.8044 0.65095 17.7773 1.6709 17.2956L35.917 1.12475C36.9755 0.625003 38.2279 0.786805 39.125 1.53881L89.998 44.1853L141.232 1.23412Z" fill="url(#paint1_linear_36_29)"/>
<path d="M121.241 115.739L90.4971 140.739L59.7529 115.739V84.7393L90.4971 109.739L121.241 84.7393V115.739Z" fill="url(#paint2_linear_36_29)"/>
<defs>
<radialGradient id="paint0_radial_36_29" cx="0" cy="0" r="1" gradientUnits="userSpaceOnUse" gradientTransform="translate(78.5 74.4998) rotate(-153.3) scale(189.172 82.2728)">
<stop offset="0.361373" stop-color="#323EE3"/>
<stop offset="1" stop-color="#752DF0"/>
</radialGradient>
<linearGradient id="paint1_linear_36_29" x1="19" y1="-7" x2="109" y2="80" gradientUnits="userSpaceOnUse">
<stop stop-color="#5BABFB"/>
<stop offset="0.453917" stop-color="#3E59FA" stop-opacity="0"/>
</linearGradient>
<linearGradient id="paint2_linear_36_29" x1="90.4971" y1="84.7393" x2="90.4971" y2="140.739" gradientUnits="userSpaceOnUse">
<stop stop-color="#313EE3"/>
<stop offset="1" stop-color="#5DAFFC"/>
</linearGradient>
</defs>
</svg>
